<?xml version="1.0" standalone="no"?>
<!DOCTYPE svg PUBLIC "-//W3C//DTD SVG 20010904//EN"
 "http://www.w3.org/TR/2001/REC-SVG-20010904/DTD/svg10.dtd">
<svg version="1.0" xmlns="http://www.w3.org/2000/svg"
 width="1217.000000pt" height="1217.000000pt" viewBox="0 0 1217.000000 1217.000000"
 preserveAspectRatio="xMidYMid meet">
<metadata>
Created by potrace 1.14, written by Peter Selinger 2001-2017
</metadata>
<g transform="translate(0.000000,1217.000000) scale(0.100000,-0.100000)"
fill="#000000" stroke="none">
<path d="M3125 12000 c-4 -6 28 -54 71 -108 315 -393 677 -760 876 -889 177
-114 412 -189 679 -215 l126 -12 7 -96 c17 -254 92 -508 204 -694 120 -200
540 -617 914 -909 l88 -69 144 116 c336 270 680 606 818 801 59 83 141 252
151 310 2 11 11 38 21 60 25 57 63 264 71 381 l7 101 86 7 c282 21 534 100
732 230 153 101 397 334 640 611 159 181 302 363 295 375 -4 7 -270 10 -819
10 l-813 0 -6 -65 c-9 -94 -33 -167 -79 -235 -50 -75 -113 -127 -281 -232
-187 -116 -331 -265 -462 -478 -138 -223 -218 -295 -372 -335 -113 -30 -265
-14 -366 36 -99 50 -173 134 -293 333 -38 63 -100 143 -172 221 -105 115 -123
131 -272 225 -257 163 -329 253 -353 440 l-11 90 -812 0 c-550 0 -815 -3 -819
-10z m3995 -540 c0 -5 -2 -10 -4 -10 -3 0 -8 5 -11 10 -3 6 -1 10 4 10 6 0 11
-4 11 -10z m550 -315 c0 -12 -29 -3 -34 10 -4 13 -2 14 14 5 11 -6 20 -13 20
-15z m-691 -686 c-22 -14 -33 -10 -19 6 7 8 17 12 22 9 6 -4 5 -10 -3 -15z
m41 -3 c0 -3 -4 -8 -10 -11 -5 -3 -10 -1 -10 4 0 6 5 11 10 11 6 0 10 -2 10
-4z m-35 -46 c-3 -5 -15 -10 -26 -10 -11 0 -17 5 -14 10 3 6 15 10 26 10 11 0
17 -4 14 -10z m27 -52 c-36 -17 -45 -19 -52 -8 -14 23 -2 30 48 30 l47 -1 -43
-21z m148 -7 c0 -12 -20 -25 -27 -18 -7 7 6 27 18 27 5 0 9 -4 9 -9z m-20
-145 c0 -3 -4 -8 -10 -11 -5 -3 -10 -1 -10 4 0 6 5 11 10 11 6 0 10 -2 10 -4z
m-107 -53 c-7 -2 -19 -2 -25 0 -7 3 -2 5 12 5 14 0 19 -2 13 -5z m-303 -83 c0
-5 -2 -10 -4 -10 -3 0 -8 5 -11 10 -3 6 -1 10 4 10 6 0 11 -4 11 -10z m-70
-20 c0 -5 -4 -10 -10 -10 -5 0 -10 5 -10 10 0 6 5 10 10 10 6 0 10 -4 10 -10z
m-15 -180 c-3 -5 -11 -10 -16 -10 -6 0 -7 5 -4 10 3 6 11 10 16 10 6 0 7 -4 4
-10z m-80 -250 c3 -5 -1 -10 -9 -10 -9 0 -16 5 -16 10 0 6 4 10 9 10 6 0 13
-4 16 -10z m-115 -8 c0 -14 -11 -21 -26 -15 -8 3 -11 9 -8 14 7 11 34 12 34 1z
m-470 -221 c0 -6 -4 -13 -10 -16 -5 -3 -10 1 -10 9 0 9 5 16 10 16 6 0 10 -4
10 -9z"/>
<path d="M2318 11976 c-29 -22 -21 -29 27 -23 41 6 70 -5 43 -16 -7 -3 2 -3
20 0 20 3 32 1 32 -6 0 -6 6 -11 13 -11 6 1 -6 16 -27 35 -42 37 -78 44 -108
21z"/>
<path d="M9788 11969 c-17 -18 -17 -19 13 -19 17 0 39 5 50 11 21 11 17 29 -7
29 -8 0 -12 -4 -9 -10 3 -5 1 -10 -4 -10 -6 0 -11 5 -11 10 0 15 -13 11 -32
-11z"/>
<path d="M10563 11199 c-195 -33 -360 -170 -419 -349 -13 -41 -15 -57 -5 -71
9 -15 8 -19 -3 -19 -49 0 -25 -204 37 -325 19 -36 60 -88 102 -130 110 -108
229 -158 372 -158 187 2 361 100 451 257 13 21 20 41 18 44 -3 3 1 10 8 16 25
19 46 120 46 215 0 50 -3 91 -7 91 -5 0 -9 16 -10 35 -4 80 -89 213 -186 289
-63 50 -167 93 -253 106 -78 11 -80 11 -151 -1z m275 -90 c-2 -6 -8 -10 -13
-10 -5 0 -11 4 -13 10 -2 6 4 11 13 11 9 0 15 -5 13 -11z m92 -73 c0 -11 -19
-15 -25 -6 -3 5 1 10 9 10 9 0 16 -2 16 -4z m-460 -75 c0 -5 -7 -12 -16 -15
-24 -9 -28 -7 -14 9 14 17 30 20 30 6z m-100 -20 c0 -5 -10 -11 -22 -14 -17
-5 -19 -9 -10 -20 10 -11 9 -17 -2 -26 -12 -10 -16 -8 -21 10 -6 17 -1 27 16
40 26 20 39 24 39 10z m430 -15 c0 -3 -4 -8 -10 -11 -5 -3 -10 -1 -10 4 0 6 5
11 10 11 6 0 10 -2 10 -4z m270 0 c0 -3 -4 -8 -10 -11 -5 -3 -10 -1 -10 4 0 6
5 11 10 11 6 0 10 -2 10 -4z m7 -232 c-3 -3 -12 -4 -19 -1 -8 3 -5 6 6 6 11 1
17 -2 13 -5z m-87 -64 c0 -5 -7 -10 -15 -10 -8 0 -15 5 -15 10 0 6 7 10 15 10
8 0 15 -4 15 -10z m-420 -51 c0 -5 -4 -9 -10 -9 -5 0 -10 7 -10 16 0 8 5 12
10 9 6 -3 10 -10 10 -16z m50 -43 c0 -3 -4 -8 -10 -11 -5 -3 -10 -1 -10 4 0 6
5 11 10 11 6 0 10 -2 10 -4z m490 -26 c0 -5 -5 -10 -11 -10 -5 0 -7 5 -4 10 3
6 8 10 11 10 2 0 4 -4 4 -10z"/>
<path d="M1393 11185 c-161 -45 -284 -156 -349 -315 -21 -51 -28 -87 -32 -167
-5 -120 4 -163 61 -277 48 -97 117 -168 213 -218 92 -48 141 -60 247 -59 132
2 236 35 238 76 0 18 1 19 8 2 6 -17 13 -14 68 27 144 109 213 246 214 428 0
63 -6 102 -25 161 -54 161 -143 256 -311 325 -76 32 -249 41 -332 17z m307
-49 c0 -3 -4 -8 -10 -11 -5 -3 -10 -1 -10 4 0 6 5 11 10 11 6 0 10 -2 10 -4z
m10 -46 c0 -5 -4 -10 -10 -10 -5 0 -10 5 -10 10 0 6 5 10 10 10 6 0 10 -4 10
-10z m-260 -44 c0 -3 -4 -8 -10 -11 -5 -3 -10 -1 -10 4 0 6 5 11 10 11 6 0 10
-2 10 -4z m-85 -16 c3 -5 1 -10 -4 -10 -6 0 -11 5 -11 10 0 6 2 10 4 10 3 0 8
-4 11 -10z m65 -96 c0 -21 -17 -17 -23 5 -3 14 -1 18 9 14 8 -3 14 -11 14 -19z
m305 16 c-3 -5 -11 -10 -16 -10 -6 0 -7 5 -4 10 3 6 11 10 16 10 6 0 7 -4 4
-10z m50 1 c3 -5 1 -12 -5 -16 -5 -3 -10 1 -10 9 0 18 6 21 15 7z m-408 -103
c-3 -8 -6 -5 -6 6 -1 11 2 17 5 13 3 -3 4 -12 1 -19z m183 -13 c0 -9 -6 -12
-15 -9 -8 4 -12 10 -9 15 8 14 24 10 24 -6z m154 6 c3 -5 -6 -8 -19 -8 -14 0
-25 3 -25 8 0 5 9 9 19 9 11 0 22 -4 25 -9z m-194 -5 c0 -2 -7 -6 -15 -10 -8
-3 -15 -1 -15 4 0 6 7 10 15 10 8 0 15 -2 15 -4z m-293 -12 c-3 -3 -12 -4 -19
-1 -8 3 -5 6 6 6 11 1 17 -2 13 -5z m-97 -14 c-19 -13 -30 -13 -30 0 0 6 10
10 23 10 18 0 19 -2 7 -10z m225 0 c-3 -5 -13 -10 -21 -10 -8 0 -12 5 -9 10 3
6 13 10 21 10 8 0 12 -4 9 -10z m235 -20 c0 -5 -5 -10 -11 -10 -5 0 -7 5 -4
10 3 6 8 10 11 10 2 0 4 -4 4 -10z m75 -20 c-3 -5 -11 -10 -16 -10 -6 0 -7 5
-4 10 3 6 11 10 16 10 6 0 7 -4 4 -10z m-335 -130 c0 -5 -2 -10 -4 -10 -3 0
-8 5 -11 10 -3 6 -1 10 4 10 6 0 11 -4 11 -10z m240 -82 c0 -13 -23 -5 -28 10
-2 7 2 10 12 6 9 -3 16 -11 16 -16z m-146 -23 c-10 -8 -23 -14 -29 -14 -5 0
-1 6 9 14 11 8 24 15 30 15 5 0 1 -7 -10 -15z m116 -20 c-7 -8 -16 -15 -21
-15 -5 0 -6 7 -3 15 4 8 13 15 21 15 13 0 13 -3 3 -15z m-260 -14 c0 -5 -7
-11 -15 -15 -15 -5 -20 5 -8 17 9 10 23 9 23 -2z m307 -77 c-3 -3 -12 -4 -19
-1 -8 3 -5 6 6 6 11 1 17 -2 13 -5z"/>
<path d="M206 9947 c-14 -15 -26 -33 -26 -42 0 -19 27 -74 46 -92 17 -17 27
-16 20 2 -3 8 -1 15 4 15 11 0 2 60 -11 75 -14 14 -11 25 5 19 22 -8 25 9 5
30 -17 18 -18 17 -43 -7z"/>
<path d="M11950 9951 c0 -4 9 -16 20 -26 20 -18 20 -18 -4 -42 -15 -15 -22
-31 -19 -43 7 -26 22 -16 39 26 11 26 11 39 3 58 -11 24 -39 44 -39 27z"/>
<path d="M180 8230 l0 -820 58 0 c111 0 211 -41 295 -118 61 -57 102 -113 195
-264 40 -64 96 -139 125 -167 136 -130 212 -192 308 -251 280 -170 364 -278
376 -482 7 -111 -9 -194 -54 -281 -48 -90 -126 -160 -298 -267 -212 -131 -356
-270 -470 -453 -105 -168 -161 -236 -236 -286 -70 -47 -135 -69 -231 -78 l-68
-6 2 -815 c2 -545 6 -816 13 -819 24 -8 399 312 619 527 314 308 421 456 505
695 48 138 91 370 91 487 l0 48 61 0 c77 0 249 25 351 51 153 38 323 111 428
182 209 142 650 600 904 940 l28 37 -116 145 c-239 296 -543 613 -735 767
-210 168 -491 266 -838 294 l-83 6 0 42 c0 55 -17 193 -36 286 -33 165 -116
369 -200 496 -54 81 -235 284 -365 408 -220 211 -582 516 -613 516 -15 0 -16
-66 -16 -820z"/>
<path d="M11830 8939 c-371 -304 -697 -627 -827 -819 -119 -177 -211 -467
-229 -722 l-7 -96 -86 -7 c-259 -19 -494 -86 -695 -199 -159 -89 -466 -382
-751 -717 -173 -202 -238 -289 -228 -301 262 -346 652 -760 876 -929 197 -149
490 -248 784 -266 l103 -6 0 -43 c0 -74 29 -265 54 -359 56 -209 121 -346 233
-495 89 -117 468 -490 663 -651 232 -192 258 -211 270 -204 7 4 10 279 10 819
l0 813 -67 6 c-202 18 -305 99 -474 372 -41 66 -99 145 -129 175 -128 127
-203 188 -296 244 -321 193 -405 315 -391 572 4 91 9 110 41 177 56 117 110
166 368 330 48 31 139 104 202 162 103 95 125 122 212 258 131 205 177 256
281 309 73 37 92 42 168 46 l85 5 -2 816 c-3 716 -5 816 -18 818 -8 1 -76 -47
-150 -108z m-335 -1659 c3 -5 -1 -10 -10 -10 -9 0 -13 5 -10 10 3 6 8 10 10
10 2 0 7 -4 10 -10z m-215 -10 c0 -5 -5 -10 -11 -10 -5 0 -7 5 -4 10 3 6 8 10
11 10 2 0 4 -4 4 -10z m215 -40 c-3 -5 -13 -10 -21 -10 -8 0 -12 5 -9 10 3 6
13 10 21 10 8 0 12 -4 9 -10z m-110 -20 c3 -5 -1 -10 -9 -10 -9 0 -16 5 -16
10 0 6 4 10 9 10 6 0 13 -4 16 -10z m-214 -42 c-1 -5 -3 -8 -6 -8 -48 0 -50 0
-35 10 16 11 41 9 41 -2z m209 -208 c0 -5 -5 -10 -11 -10 -5 0 -7 5 -4 10 3 6
8 10 11 10 2 0 4 -4 4 -10z m-1100 -943 c0 -7 14 -21 30 -30 32 -19 39 -37 15
-37 -8 0 -15 6 -15 14 0 9 -7 12 -20 9 -11 -3 -20 -1 -20 3 0 5 -3 19 -6 32
-4 13 -2 22 5 22 6 0 11 -6 11 -13z m102 -34 c-2 -13 2 -23 8 -23 6 0 8 -5 5
-10 -4 -7 -13 -7 -26 0 -11 6 -17 15 -13 21 3 5 0 17 -7 25 -11 14 -10 15 11
12 19 -2 24 -8 22 -25z m-137 7 c-3 -5 -11 -10 -16 -10 -6 0 -7 5 -4 10 3 6
11 10 16 10 6 0 7 -4 4 -10z m95 -60 c0 -5 -7 -10 -16 -10 -8 0 -12 5 -9 10 3
6 10 10 16 10 5 0 9 -4 9 -10z m120 -21 c0 -6 -4 -7 -10 -4 -5 3 -10 11 -10
16 0 6 5 7 10 4 6 -3 10 -11 10 -16z m-222 -11 c-3 -7 -11 -13 -18 -13 -7 0
-15 6 -17 13 -3 7 4 12 17 12 13 0 20 -5 18 -12z m146 -40 c-7 -12 -44 -10
-44 2 0 5 11 9 24 8 14 -1 22 -6 20 -10z m-274 -118 c0 -5 -5 -10 -11 -10 -5
0 -7 5 -4 10 3 6 8 10 11 10 2 0 4 -4 4 -10z m-60 -46 c0 -8 -5 -12 -10 -9 -6
4 -8 11 -5 16 9 14 15 11 15 -7z m-19 -37 c-1 -12 -15 -9 -19 4 -3 6 1 10 8 8
6 -3 11 -8 11 -12z"/>
<path d="M3166 8999 c23 -156 173 -651 238 -786 31 -65 38 -73 63 -73 144 1
491 352 543 549 19 71 9 88 -73 126 -150 69 -607 210 -720 222 l-58 6 7 -44z"/>
<path d="M8920 8994 c-35 -7 -145 -36 -243 -64 -298 -85 -520 -170 -533 -205
-9 -22 21 -98 62 -162 53 -80 213 -237 308 -302 120 -82 223 -119 263 -93 6 4
23 32 37 62 22 47 24 57 11 69 -11 12 -17 12 -29 2 -9 -7 -21 -11 -28 -8 -8 4
-5 8 10 12 26 9 28 23 5 41 -16 12 -16 13 -1 14 9 0 25 -12 36 -27 14 -18 24
-25 30 -18 27 29 201 621 202 688 0 11 -57 7 -130 -9z"/>
<path d="M4390 8110 c-106 -18 -203 -92 -249 -189 -22 -48 -26 -69 -26 -146 1
-73 5 -99 23 -136 37 -75 87 -125 160 -161 59 -29 76 -33 147 -33 65 1 91 6
136 27 76 35 133 88 166 156 25 50 28 68 28 152 0 81 -4 102 -24 140 -37 70
-61 98 -115 134 -76 51 -160 70 -246 56z"/>
<path d="M7676 8109 c-49 -8 -70 -23 -61 -46 5 -14 -37 -43 -62 -43 -14 1 -11
7 15 30 41 38 35 38 -26 1 -83 -52 -133 -139 -140 -248 -2 -40 -1 -80 3 -90 8
-18 11 -28 13 -50 3 -23 56 16 68 49 13 39 51 55 39 16 -4 -12 -14 -27 -21
-31 -16 -9 -19 -37 -3 -37 5 0 7 -4 4 -10 -3 -5 -14 -10 -24 -10 -10 0 -25 -7
-32 -17 -13 -15 -12 -15 10 -4 16 9 26 10 34 2 7 -7 2 -12 -16 -16 l-27 -7 36
-44 c41 -50 132 -98 205 -109 51 -8 146 8 194 32 59 30 112 82 145 145 32 58
35 70 35 153 0 77 -4 98 -26 145 -68 140 -208 213 -363 189z m121 -75 c-3 -3
-12 -4 -19 -1 -8 3 -5 6 6 6 11 1 17 -2 13 -5z m-267 -24 c0 -5 -5 -10 -11
-10 -5 0 -7 5 -4 10 3 6 8 10 11 10 2 0 4 -4 4 -10z m21 -53 c-6 -8 -8 -17 -4
-20 3 -4 -2 -7 -12 -7 -17 0 -17 1 0 20 20 22 34 28 16 7z m34 4 c3 -5 1 -12
-5 -16 -5 -3 -10 1 -10 9 0 18 6 21 15 7z m45 -68 c13 -12 12 -14 -8 -20 -13
-3 -21 -11 -18 -18 5 -13 -12 -35 -26 -35 -4 0 -8 16 -8 35 0 23 -6 38 -16 42
-12 5 -13 7 -2 14 16 10 58 1 78 -18z m-45 -113 c-3 -5 -13 -10 -21 -10 -8 0
-12 5 -9 10 3 6 13 10 21 10 8 0 12 -4 9 -10z m-24 -103 c-13 -13 -26 -3 -16
12 3 6 11 8 17 5 6 -4 6 -10 -1 -17z m-31 -77 c0 -5 -4 -10 -10 -10 -5 0 -10
5 -10 10 0 6 5 10 10 10 6 0 10 -4 10 -10z m238 -42 c-3 -7 -13 -15 -24 -17
-16 -3 -17 -1 -5 13 16 19 34 21 29 4z m67 -9 c-3 -4 -12 -6 -20 -3 -8 4 -13
10 -10 15 3 4 12 6 20 3 8 -4 13 -10 10 -15z m120 11 c-3 -5 -10 -10 -16 -10
-5 0 -9 5 -9 10 0 6 7 10 16 10 8 0 12 -4 9 -10z m-255 -43 c0 -14 -19 -37
-31 -37 -4 0 -2 11 4 25 13 27 27 33 27 12z"/>
<path d="M5963 7100 c-238 -34 -439 -136 -603 -306 -135 -141 -211 -275 -257
-453 -126 -495 135 -1011 609 -1200 253 -102 576 -91 815 27 116 57 197 115
284 201 256 257 355 620 264 976 -94 371 -397 659 -779 741 -88 18 -253 25
-333 14z m736 -306 c-29 -16 -49 -18 -49 -4 0 14 41 29 59 22 9 -4 6 -9 -10
-18z m-914 -594 c3 -5 1 -10 -4 -10 -6 0 -11 5 -11 10 0 6 2 10 4 10 3 0 8 -4
11 -10z"/>
<path d="M4317 4770 c-97 -25 -175 -87 -219 -177 -28 -57 -33 -77 -33 -142 0
-77 19 -156 36 -146 5 4 6 0 3 -8 -3 -8 10 -34 28 -58 149 -195 461 -162 571
61 32 65 32 225 0 290 -32 65 -97 128 -161 158 -61 28 -162 38 -225 22z m253
-100 c0 -21 -16 -26 -39 -11 -18 11 -5 31 20 31 12 0 19 -7 19 -20z m20 -40
c0 -5 -5 -10 -11 -10 -5 0 -7 5 -4 10 3 6 8 10 11 10 2 0 4 -4 4 -10z m-250
-20 c0 -5 -4 -10 -10 -10 -5 0 -10 5 -10 10 0 6 5 10 10 10 6 0 10 -4 10 -10z
m197 -26 c-3 -3 -12 -4 -19 -1 -8 3 -5 6 6 6 11 1 17 -2 13 -5z m103 -9 c0 -8
-6 -15 -14 -15 -20 0 -29 17 -14 23 22 9 28 7 28 -8z m-325 -285 c-3 -5 -10
-10 -16 -10 -5 0 -9 5 -9 10 0 6 7 10 16 10 8 0 12 -4 9 -10z"/>
<path d="M7685 4767 c-63 -21 -97 -42 -142 -89 -64 -66 -93 -137 -93 -229 0
-138 55 -235 170 -298 62 -34 70 -36 160 -36 84 0 102 3 152 28 67 33 121 90
154 162 26 56 44 175 27 175 -6 0 -8 11 -6 24 7 36 -38 127 -87 176 -83 83
-230 121 -335 87z m125 -117 c0 -5 -2 -10 -4 -10 -3 0 -8 5 -11 10 -3 6 -1 10
4 10 6 0 11 -4 11 -10z m-250 -107 c0 -5 -5 -15 -10 -23 -7 -12 -12 -12 -22
-2 -10 10 -10 15 2 22 18 12 30 13 30 3z m-62 -42 c-15 -5 -21 7 -13 26 7 17
8 17 15 -2 4 -11 3 -22 -2 -24z m402 -90 c0 -12 -20 -25 -27 -18 -7 7 6 27 18
27 5 0 9 -4 9 -9z"/>
<path d="M8685 4031 c-158 -38 -455 -351 -510 -537 -27 -89 -4 -112 170 -174
44 -16 50 -17 61 -3 8 12 13 13 18 5 4 -7 5 -16 1 -21 -4 -8 135 -56 278 -97
21 -6 23 12 2 20 -8 3 -15 17 -15 31 0 15 -5 35 -10 46 -8 15 -7 19 5 19 8 0
15 -7 15 -16 0 -8 10 -37 21 -64 24 -55 17 -52 187 -91 58 -14 97 -18 103 -12
6 6 2 44 -11 104 -64 308 -233 801 -273 798 -7 -1 -25 -4 -42 -8z m-35 -61 c0
-5 -7 -10 -16 -10 -8 0 -12 5 -9 10 3 6 10 10 16 10 5 0 9 -4 9 -10z m80 -20
c0 -5 -4 -10 -10 -10 -5 0 -10 5 -10 10 0 6 5 10 10 10 6 0 10 -4 10 -10z
m-50 -40 c0 -5 -5 -10 -11 -10 -5 0 -7 5 -4 10 3 6 8 10 11 10 2 0 4 -4 4 -10z
m-8 -62 c-15 -15 -26 -4 -18 18 5 13 9 15 18 6 9 -9 9 -15 0 -24z m-4 -201 c2
-12 -1 -15 -12 -11 -19 7 -22 38 -3 32 6 -3 13 -12 15 -21z m57 -58 c11 -17 2
-18 -19 -3 -17 12 -17 14 -4 14 9 0 20 -5 23 -11z m-201 -50 c-3 -5 -10 -7
-15 -3 -5 3 -7 10 -3 15 3 5 10 7 15 3 5 -3 7 -10 3 -15z m224 -61 c21 -21 14
-40 -8 -21 -21 18 -26 33 -12 33 4 0 13 -5 20 -12z m-428 -33 c0 -7 8 -19 18
-24 15 -9 15 -10 1 -11 -9 0 -19 7 -23 15 -3 8 -12 15 -21 15 -8 0 -15 5 -15
10 0 6 9 10 20 10 11 0 20 -7 20 -15z m320 -85 c0 -5 -4 -10 -9 -10 -6 0 -13
5 -16 10 -3 6 1 10 9 10 9 0 16 -4 16 -10z m-165 -10 c-3 -5 -10 -10 -16 -10
-5 0 -9 5 -9 10 0 6 7 10 16 10 8 0 12 -4 9 -10z m102 -37 c-9 -9 -19 -14 -23
-11 -10 10 6 28 24 28 15 0 15 -1 -1 -17z"/>
<path d="M3407 4010 c-22 -14 -37 -44 -80 -160 -67 -181 -77 -220 -58 -220 10
0 24 -31 16 -38 -2 -3 -11 1 -20 8 -9 7 -17 11 -19 9 -2 -2 -19 -58 -39 -124
-44 -150 -78 -308 -68 -318 4 -4 33 -1 65 6 57 13 61 23 16 40 -11 4 -9 6 5 6
11 1 31 -6 43 -15 20 -14 29 -14 80 -1 31 8 71 21 87 28 17 7 34 11 38 10 13
-3 131 31 142 40 5 5 -6 9 -25 10 l-35 1 28 10 c15 5 27 14 27 19 0 5 7 9 15
9 8 0 15 -7 15 -15 0 -19 23 -19 88 0 47 14 52 18 52 45 0 20 5 30 15 30 9 0
15 -9 15 -25 l0 -25 53 21 c118 45 177 79 177 102 0 33 -42 114 -94 185 -154
208 -457 411 -539 362z m5 -342 c6 -13 5 -18 -6 -18 -17 0 -27 25 -19 47 5 14
8 14 11 2 3 -7 9 -22 14 -31z m122 -84 c9 -3 16 -11 16 -16 0 -6 -6 -8 -14 -5
-7 3 -19 0 -25 -6 -8 -8 -11 -7 -11 4 0 14 8 29 16 29 1 0 9 -3 18 -6z m-44
-54 c0 -5 -4 -10 -10 -10 -5 0 -10 5 -10 10 0 6 5 10 10 10 6 0 10 -4 10 -10z
m130 -35 c0 -8 -4 -15 -9 -15 -13 0 -22 16 -14 24 11 11 23 6 23 -9z m-240
-65 c0 -5 -4 -10 -9 -10 -6 0 -13 5 -16 10 -3 6 1 10 9 10 9 0 16 -4 16 -10z
m263 -15 c-8 -22 -22 -18 -16 5 3 11 9 17 14 15 4 -3 6 -12 2 -20z m-232 -8
c-1 -12 -15 -9 -19 4 -3 6 1 10 8 8 6 -3 11 -8 11 -12z m-71 -17 c0 -5 -5 -10
-11 -10 -5 0 -7 5 -4 10 3 6 8 10 11 10 2 0 4 -4 4 -10z m84 -151 c-3 -5 -10
-7 -15 -3 -5 3 -7 10 -3 15 3 5 10 7 15 3 5 -3 7 -10 3 -15z"/>
<path d="M5965 3083 c-308 -247 -673 -599 -810 -781 -138 -183 -229 -429 -264
-712 -6 -46 -11 -105 -11 -131 l0 -46 -96 -7 c-161 -11 -451 -77 -469 -106 -3
-6 -15 -10 -27 -10 -29 0 -174 -73 -246 -123 -134 -95 -364 -311 -355 -335 5
-11 2 -14 -9 -10 -19 8 -114 -85 -104 -101 4 -6 0 -11 -8 -11 -32 0 -448 -491
-438 -517 3 -10 176 -13 817 -13 l812 0 7 72 c4 39 18 100 31 135 23 65 92
164 132 190 13 9 23 22 23 29 0 8 5 14 12 14 14 0 143 77 253 151 108 71 262
246 370 419 166 266 288 350 505 350 217 0 340 -85 506 -351 49 -79 116 -173
150 -209 34 -36 81 -87 105 -114 24 -27 91 -80 149 -117 58 -37 131 -84 164
-105 149 -97 229 -216 249 -374 l11 -90 812 0 c534 0 815 3 819 10 7 12 -5 28
-219 285 -222 266 -522 566 -682 681 -130 93 -334 178 -524 218 -41 9 -132 21
-201 28 l-126 11 -7 96 c-17 255 -92 509 -204 695 -102 171 -460 539 -752 776
-36 28 -106 85 -156 126 -50 41 -93 74 -95 74 -2 0 -58 -44 -124 -97z m322
-199 c-3 -3 -12 -4 -19 -1 -8 3 -5 6 6 6 11 1 17 -2 13 -5z m383 -1684 c0 -5
-9 -10 -20 -10 -11 0 -20 5 -20 10 0 6 9 10 20 10 11 0 20 -4 20 -10z m50 -10
c0 -5 -7 -10 -15 -10 -8 0 -15 5 -15 10 0 6 7 10 15 10 8 0 15 -4 15 -10z
m-1840 -50 c0 -5 -4 -10 -10 -10 -5 0 -10 5 -10 10 0 6 5 10 10 10 6 0 10 -4
10 -10z m-865 -370 c-3 -5 -10 -10 -16 -10 -5 0 -9 5 -9 10 0 6 7 10 16 10 8
0 12 -4 9 -10z m45 -4 c0 -3 -4 -8 -10 -11 -5 -3 -10 -1 -10 4 0 6 5 11 10 11
6 0 10 -2 10 -4z m-350 -20 c0 -7 -7 -19 -15 -26 -16 -13 -20 -3 -9 24 8 20
24 21 24 2z m290 -36 c0 -5 -7 -10 -16 -10 -8 0 -12 5 -9 10 3 6 10 10 16 10
5 0 9 -4 9 -10z m545 -50 c3 -5 1 -10 -4 -10 -6 0 -11 5 -11 10 0 6 2 10 4 10
3 0 8 -4 11 -10z m355 -50 c0 -5 -4 -10 -10 -10 -5 0 -10 5 -10 10 0 6 5 10
10 10 6 0 10 -4 10 -10z m-1100 -210 c0 -5 -2 -10 -4 -10 -3 0 -8 5 -11 10 -3
6 -1 10 4 10 6 0 11 -4 11 -10z m5155 -140 c3 -5 1 -10 -4 -10 -6 0 -11 5 -11
10 0 6 2 10 4 10 3 0 8 -4 11 -10z"/>
<path d="M88 2753 c7 -3 16 -2 19 1 4 3 -2 6 -13 5 -11 0 -14 -3 -6 -6z"/>
<path d="M11944 2288 c1 -25 6 -38 15 -38 11 0 9 -5 -5 -21 -19 -22 -19 -22 3
-10 34 18 47 48 34 80 -7 15 -19 27 -30 27 -15 0 -19 -7 -17 -38z"/>
<path d="M190 2299 c0 -5 5 -7 10 -4 6 3 10 8 10 11 0 2 -4 4 -10 4 -5 0 -10
-5 -10 -11z"/>
<path d="M1430 2021 c-102 -23 -208 -82 -277 -153 -50 -52 -110 -159 -129
-230 -18 -67 -18 -208 0 -274 50 -189 223 -350 411 -385 75 -14 192 -6 266 19
193 64 348 254 360 442 5 90 -1 150 -16 150 -18 0 -20 17 -3 22 10 4 9 14 0
47 -15 47 -76 156 -95 168 -7 4 -20 20 -30 35 -33 53 -211 156 -245 143 -9 -3
-19 0 -23 6 -8 14 -169 21 -219 10z m258 -61 c-7 -11 -16 -16 -21 -11 -12 12
0 31 19 31 12 0 12 -3 2 -20z m-263 -49 c3 -5 1 -12 -5 -16 -5 -3 -10 1 -10 9
0 18 6 21 15 7z m315 -15 c0 -3 -4 -8 -10 -11 -5 -3 -10 -1 -10 4 0 6 5 11 10
11 6 0 10 -2 10 -4z m-126 -22 c9 -24 0 -29 -19 -11 -19 19 -19 27 -1 27 8 0
17 -7 20 -16z m-184 -34 c0 -5 -7 -10 -16 -10 -8 0 -12 5 -9 10 3 6 10 10 16
10 5 0 9 -4 9 -10z m160 6 c0 -3 -4 -8 -10 -11 -5 -3 -10 -1 -10 4 0 6 5 11
10 11 6 0 10 -2 10 -4z m-180 -88 c0 -5 -9 -8 -20 -8 -22 0 -28 26 -7 33 12 4
27 -10 27 -25z m525 -58 c3 -5 2 -10 -4 -10 -5 0 -13 5 -16 10 -3 6 -2 10 4
10 5 0 13 -4 16 -10z m-351 -73 c-3 -9 -10 -14 -15 -11 -5 3 -9 -2 -9 -10 0
-9 -7 -16 -15 -16 -22 0 -18 31 5 37 11 3 20 12 20 21 0 11 3 13 10 6 6 -6 8
-18 4 -27z m-64 13 c0 -5 -4 -10 -10 -10 -5 0 -10 5 -10 10 0 6 5 10 10 10 6
0 10 -4 10 -10z m255 -90 c3 -5 -1 -10 -10 -10 -9 0 -13 5 -10 10 3 6 8 10 10
10 2 0 7 -4 10 -10z m165 -60 c0 -5 -2 -10 -4 -10 -3 0 -8 5 -11 10 -3 6 -1
10 4 10 6 0 11 -4 11 -10z m0 -51 c0 -6 -4 -7 -10 -4 -5 3 -10 11 -10 16 0 6
5 7 10 4 6 -3 10 -11 10 -16z m-190 -183 c0 -3 -4 -8 -10 -11 -5 -3 -10 -1
-10 4 0 6 5 11 10 11 6 0 10 -2 10 -4z"/>
<path d="M10526 2019 c-22 -5 -73 -25 -114 -45 -127 -61 -228 -180 -279 -327
-22 -64 -24 -210 -4 -282 38 -136 137 -261 261 -329 350 -190 782 60 781 453
0 109 -13 168 -58 259 -64 127 -193 229 -340 267 -63 16 -186 18 -247 4z"/>
<path d="M9866 215 c-8 -8 -30 -15 -48 -16 -30 0 -31 -1 -10 -10 25 -10 50 -1
72 25 16 20 6 21 -14 1z"/>
</g>
</svg>
